<svg width="86" height="86" viewBox="0 0 86 86" fill="none" xmlns="http://www.w3.org/2000/svg">
<path d="M20.9754 60.6351C25.6307 67.0069 31.3655 71.3052 38.1797 73.5299C39.1817 73.857 40.2311 73.2521 40.5136 72.2367C40.8034 71.1954 40.1758 70.1263 39.1562 69.7677C37.0305 69.0203 34.891 67.9149 32.7377 66.4517C29.9468 64.5544 27.4042 62.1649 25.1096 59.2833C22.8151 56.4017 20.9407 53.0647 19.4865 49.2723C18.0329 45.48 17.306 41.3051 17.306 36.7477V23.519C17.306 21.0974 19.0414 19.0239 21.4251 18.5972L39.1216 15.4299C39.7057 15.3254 40.3036 15.3256 40.8876 15.4307L58.5883 18.6141C60.9701 19.0425 62.7033 21.1151 62.7033 23.5352V36.5708C62.7033 37.6555 63.5827 38.5349 64.6674 38.5349C65.7522 38.5349 66.6315 37.6555 66.6315 36.5708V20.7854C66.6315 18.3936 64.9375 16.3367 62.59 15.8782L40.9647 11.6542C40.3307 11.5304 39.6787 11.5306 39.0447 11.6548L17.4163 15.8932C15.0702 16.353 13.3778 18.4092 13.3778 20.7999V36.745C13.3778 45.7392 15.9103 53.7025 20.9754 60.6351Z" fill="url(#paint0_radial_119_417)"/>
<path d="M57.541 42.7607C61.6839 42.7607 65.2398 44.2416 68.208 47.2031C71.1756 50.1642 72.6592 53.7573 72.6592 57.9814C72.6591 62.0991 71.1762 65.6419 68.21 68.6094C65.243 71.5769 61.6727 73.0605 57.5 73.0605C53.3273 73.0605 49.7664 71.5776 46.8174 68.6113C43.8683 65.6449 42.3936 62.1026 42.3936 57.9854C42.3937 53.7608 43.8673 50.1672 46.8145 47.2051C49.7617 44.2424 53.3373 42.7608 57.541 42.7607ZM57.3398 61.54C55.7046 61.54 54.1042 61.7589 52.54 62.1973C50.9761 62.6362 49.4766 63.2478 48.041 64.0312C49.107 65.6017 50.4259 66.7871 51.9971 67.5879C53.5683 68.3881 55.3325 68.789 57.29 68.7891C59.2698 68.7891 61.057 68.388 62.6504 67.5859C64.2443 66.7845 65.595 65.5994 66.7021 64.0312C65.1656 63.2477 63.6331 62.6362 62.1055 62.1973C60.5785 61.7589 58.9898 61.5401 57.3398 61.54ZM57.3633 46.6895C55.8423 46.6895 54.5309 47.2165 53.4297 48.2705C52.3291 49.3246 51.7793 50.6255 51.7793 52.1729C51.7793 53.7196 52.3274 55.0416 53.4238 56.1387C54.5197 57.2351 55.8335 57.7832 57.3652 57.7832C58.9168 57.7832 60.2231 57.232 61.2832 56.1289C62.3438 55.0253 62.874 53.7168 62.874 52.2041C62.874 50.6914 62.3359 49.3941 61.2598 48.3125C60.1842 47.2303 58.885 46.6895 57.3633 46.6895Z" fill="#500A5A"/>
<defs>
<radialGradient id="paint0_radial_119_417" cx="0" cy="0" r="1" gradientTransform="matrix(-59.0056 55.1833 64.7924 69.4342 84.0889 22.6945)" gradientUnits="userSpaceOnUse">
<stop offset="0.182441" stop-color="#9AA9B6"/>
<stop offset="0.754287" stop-color="#F01ADB"/>
</radialGradient>
</defs>
</svg>
