<svg width="86" height="86" viewBox="0 0 86 86" fill="none" xmlns="http://www.w3.org/2000/svg">
<path d="M72.1772 23.5365C73.5972 23.5365 74.8231 24.0526 75.8539 25.0834C76.8845 26.1141 77.3998 27.3393 77.3998 28.7592V72.6302C77.3998 74.0502 76.8845 75.2753 75.8539 76.306C74.8231 77.3368 73.5972 77.8529 72.1772 77.8529H13.8227C12.4026 77.8529 11.1767 77.3368 10.1459 76.306C9.11537 75.2753 8.60003 74.0501 8.60001 72.6302V28.7592C8.60004 27.3393 9.11536 26.1141 10.1459 25.0834C11.1767 24.0526 12.4026 23.5365 13.8227 23.5365H72.1772ZM13.8227 27.6459C13.5445 27.6459 13.2893 27.7619 13.057 27.9935C12.8253 28.2258 12.7094 28.481 12.7094 28.7592V72.6302C12.7094 72.9084 12.8253 73.1636 13.057 73.3959C13.2893 73.6275 13.5445 73.7435 13.8227 73.7435H72.1772C72.4554 73.7435 72.7114 73.6276 72.9438 73.3959C73.1753 73.1636 73.2914 72.9083 73.2914 72.6302V28.7592C73.2914 28.4811 73.1753 28.2258 72.9438 27.9935C72.7114 27.7618 72.4554 27.6459 72.1772 27.6459H13.8227ZM66.9897 15.389C69.2394 15.3891 71.0629 17.2135 71.0629 19.4633H15.3891C15.3891 17.2134 17.2135 15.389 19.4633 15.389H66.9897ZM61.558 8.59998C63.8077 8.6 65.631 10.4236 65.6313 12.6732H20.8207C20.8209 10.4236 22.6452 8.59998 24.8949 8.59998H61.558Z" fill="url(#paint0_linear_119_347)"/>
<path d="M67.3715 52.3305H52.2609V48.2224H67.3715V52.3305Z" fill="#500A5A"/>
<path d="M67.3715 41.8856H52.2609V37.7766H67.3715V41.8856Z" fill="#500A5A"/>
<path d="M45.924 63.5766H19.4632V62.4839C19.4632 60.2045 20.6237 58.3752 22.9448 56.9962C25.2659 55.6178 28.5155 54.9286 32.6936 54.9286C36.8717 54.9286 40.1213 55.6178 42.4424 56.9962C44.7635 58.3752 45.924 60.2045 45.924 62.4839V63.5766Z" fill="#500A5A"/>
<path d="M36.8506 47.1587C35.7039 48.2993 34.3152 48.8697 32.6845 48.8697C31.0539 48.8697 29.6682 48.2963 28.5276 47.1497C27.3869 46.003 26.8166 44.6143 26.8166 42.9836C26.8166 41.353 27.39 39.9673 28.5366 38.8267C29.6833 37.686 31.072 37.1157 32.7026 37.1157C34.3327 37.1157 35.7184 37.6891 36.8596 38.8357C38.0002 39.9824 38.5706 41.3711 38.5706 43.0017C38.5706 44.6324 37.9972 46.0181 36.8506 47.1587Z" fill="#500A5A"/>
<defs>
<linearGradient id="paint0_linear_119_347" x1="12.4222" y1="80.0281" x2="75.0114" y2="15.0505" gradientUnits="userSpaceOnUse">
<stop offset="0.131272" stop-color="#F01ADB"/>
<stop offset="1" stop-color="#9AA9B6"/>
</linearGradient>
</defs>
</svg>
