<svg width="86" height="86" viewBox="0 0 86 86" fill="none" xmlns="http://www.w3.org/2000/svg">
<path d="M46.4191 11.9428C47.3548 11.4026 48.3149 11.2644 49.2988 11.528L76.2331 18.7451C77.2477 19.017 78.02 19.6109 78.5492 20.527C79.0778 21.4432 79.206 22.4089 78.9341 23.4235L76.6721 31.8658C76.5514 32.3168 76.7872 32.776 77.1518 33.0677C77.5189 33.3613 77.8111 33.7336 78.028 34.1842C78.3666 34.8883 78.4391 35.6028 78.245 36.3272L77.0188 40.9034C76.8101 41.6822 76.3827 42.2927 75.7371 42.7348C75.3236 43.0178 74.8843 43.195 74.4195 43.2662C73.9578 43.3368 73.5238 43.6167 73.4028 44.0678L66.4116 70.1589C66.1397 71.1736 65.5456 71.9458 64.6297 72.4746C63.7133 73.0036 62.7478 73.1318 61.7332 72.86L46.1937 68.6962L24.2869 74.5662C23.2723 74.8381 22.3068 74.7096 21.3908 74.1804C20.4745 73.6517 19.8804 72.8798 19.6085 71.8652L7.08595 25.1293C6.82231 24.1454 6.96054 23.1857 7.50074 22.25C8.04094 21.3144 8.80306 20.7145 9.78698 20.4509L36.7217 13.2338C37.7362 12.9621 38.7015 13.0906 39.6178 13.6192C40.5337 14.1484 41.1277 14.9203 41.3996 15.9349L42.7812 21.0911L44.6204 14.2291C44.884 13.2452 45.4835 12.483 46.4191 11.9428ZM37.9577 17.8465C37.8211 17.3367 37.2968 17.0343 36.787 17.1708L11.6986 23.8933C11.1888 24.0299 10.8865 24.5538 11.0229 25.0635L23.0509 69.9536C23.1875 70.4634 23.7118 70.7658 24.2216 70.6292L49.31 63.9068C49.8197 63.7702 50.1222 63.2463 49.9856 62.7366L37.9577 17.8465ZM49.233 15.465C48.7233 15.3285 48.1995 15.6309 48.0629 16.1406L45.5662 25.4578C45.7121 25.529 45.8555 25.6115 45.9954 25.7069C46.6407 26.1474 47.0606 26.7299 47.2547 27.4543L48.4809 32.0309C48.6896 32.8099 48.625 33.5522 48.2868 34.2579C48.0702 34.71 47.7781 35.0832 47.411 35.3773C47.0466 35.6693 46.8105 36.1285 46.9314 36.5796L53.9226 62.6708C54.1945 63.6854 54.066 64.6509 53.5372 65.5668C53.3262 65.9323 53.0757 66.2455 52.7874 66.5084L61.799 68.923C62.3087 69.0595 62.8326 68.7571 62.9691 68.2473L74.9971 23.3577C75.1337 22.8479 74.8313 22.3241 74.3215 22.1875L49.233 15.465ZM25.5611 25.4517C26.053 25.3199 26.5327 25.3893 27.0005 25.6593C27.4683 25.9294 27.7683 26.3105 27.9001 26.8025C28.0318 27.2943 27.9629 27.7741 27.6929 28.2419C27.4228 28.7097 27.0417 29.0096 26.5498 29.1414C26.0578 29.2732 25.5778 29.2039 25.1099 28.9338C24.6422 28.6637 24.3422 28.2826 24.2104 27.7907C24.0786 27.2988 24.1479 26.819 24.418 26.3513C24.6881 25.8834 25.0692 25.5835 25.5611 25.4517ZM59.0195 23.9531C59.4873 23.683 59.9671 23.6141 60.4589 23.7459C60.9509 23.8777 61.332 24.1777 61.6021 24.6455C61.8721 25.1132 61.9415 25.593 61.8097 26.0849C61.6779 26.5767 61.3778 26.9579 60.9101 27.228C60.4424 27.498 59.9621 27.5674 59.4703 27.4356C58.9785 27.3038 58.5977 27.0037 58.3276 26.536C58.0575 26.0682 57.9882 25.5881 58.12 25.0962C58.2518 24.6043 58.5517 24.2231 59.0195 23.9531Z" fill="url(#paint0_radial_119_416)"/>
<defs>
<radialGradient id="paint0_radial_119_416" cx="0" cy="0" r="1" gradientTransform="matrix(74.8294 121.059 -118.428 84.7153 14.0078 18.0887)" gradientUnits="userSpaceOnUse">
<stop offset="0.114235" stop-color="#F01ADB"/>
<stop offset="0.521988" stop-color="#9AA9B6"/>
<stop offset="0.639382" stop-color="#F01ADB" stop-opacity="0"/>
</radialGradient>
</defs>
</svg>
