<svg width="86" height="86" viewBox="0 0 86 86" fill="none" xmlns="http://www.w3.org/2000/svg">
<g clip-path="url(#clip0_119_415)">
<path d="M41.0889 17.6777C45.8922 17.6777 50.6109 18.9421 54.7707 21.3438C58.9305 23.7454 62.3848 27.1998 64.7865 31.3595L41.0889 45.0414V17.6777Z" fill="#500A5A"/>
<path d="M74.4806 56.3176C76.2675 52.1863 77.161 47.7848 77.161 43.1133C77.161 38.405 76.2671 33.9804 74.4795 29.8395C72.6918 25.6984 70.2507 22.0963 67.1563 19.0331C64.0619 15.97 60.449 13.5449 56.3177 11.758C52.1863 9.97116 47.7849 9.07772 43.1134 9.07772C38.4051 9.07772 33.9805 9.97155 29.8395 11.7592C25.6985 13.5469 22.0964 15.973 19.0332 19.0376C16.485 21.5869 14.3784 24.5094 12.7134 27.8049C12.1744 28.872 12.7785 30.1384 13.9285 30.465C14.8794 30.735 15.8769 30.2583 16.33 29.3798C17.722 26.6803 19.5701 24.1785 21.8743 21.8743C27.695 16.0537 34.7767 13.1434 43.1194 13.1434C51.4254 13.1434 58.4978 16.0537 64.3368 21.8743C70.1758 27.6949 73.0953 34.7766 73.0953 43.1193C73.0953 51.4253 70.1758 58.4978 64.3368 64.3368C58.4979 70.1757 51.4254 73.0952 43.1194 73.0952C34.7767 73.0952 27.695 70.1757 21.8743 64.3368C16.5351 58.9807 13.6447 52.5867 13.2032 45.1547C13.1365 44.0328 12.2315 43.1207 11.1076 43.1223C9.98609 43.124 9.07131 44.0345 9.13495 45.1542C9.35786 49.076 10.2326 52.8002 11.7593 56.3268C13.547 60.4563 15.9731 64.0676 19.0377 67.1607C22.1022 70.2537 25.7059 72.6937 29.8488 74.4806C33.9916 76.2674 38.4171 77.1609 43.1254 77.1609C47.7969 77.1609 52.1974 76.2671 56.3269 74.4794C60.4564 72.6917 64.0677 70.2507 67.1608 67.1562C70.2538 64.0618 72.6937 60.449 74.4806 56.3176Z" fill="url(#paint0_radial_119_415)"/>
</g>
<defs>
<radialGradient id="paint0_radial_119_415" cx="0" cy="0" r="1" gradientUnits="userSpaceOnUse" gradientTransform="translate(61.1556 22.4555) rotate(144.045) scale(83.8129)">
<stop offset="0.279211" stop-color="#F01ADB"/>
<stop offset="0.787018" stop-color="#9AA9B6"/>
</radialGradient>
<clipPath id="clip0_119_415">
<rect width="86" height="86" fill="white"/>
</clipPath>
</defs>
</svg>
